<?xml version="1.0" encoding="UTF-8"?>
<svg id="Layer_2" data-name="Layer 2" xmlns="http://www.w3.org/2000/svg" viewBox="0 0 456.97 328.87">
  <defs>
    <style>
      .cls-1 {
        stroke-width: 0px;
      }
    </style>
  </defs>
  <g id="Layer_1-2" data-name="Layer 1">
    <g id="EGkuJ3">
      <g>
        <path class="cls-1" d="m360.5,222.68c-2.22,5.32-4.38,10.65-6.66,15.93-10.22,23.71-22.24,46.45-36.6,67.93-4.48,6.7-9.59,12.91-15.33,18.6-1.37,1.36-2.79,1.94-4.71,1.76-2.57-.24-5.15-.33-7.68-.9-.83-.19-1.65-.41-2.47-.88.14-.21.21-.37.32-.47,7.56-7.2,13.63-15.61,19.39-24.25,10.5-15.74,19.29-32.44,27.41-49.5,4.99-10.48,9.47-21.18,13.65-32.01.08-.2.13-.41.23-.76-8.19-3.56-15.72-8.23-22.78-14.02-.69,2.08-1.31,4.02-1.97,5.94-7.84,22.91-17.43,45.05-29.58,66.03-5.1,8.8-10.68,17.28-17.44,24.92-2.01,2.28-3.96,4.63-6.89,5.91-7.11,3.1-15.17-.78-17.11-8.31-2.85-11.04-3.59-22.31-3.6-33.66-.01-14.06,1.31-28.01,3.32-41.91,4.02-27.85,10.56-55.1,19.41-81.79,1.04-3.14,2.14-6.26,3.26-9.37.24-.69.24-1.24-.04-1.95-1.37-3.43-3.68-6.19-6.12-8.87-.72-.8-1.44-1.6-2.13-2.43-.34-.42-.86-.89-.53-1.47.29-.53.94-.55,1.5-.56,2.24-.06,4.33.48,6.33,1.49,4.83,2.43,8.31,6.36,11.53,10.53,4.79,6.23,8.63,13.06,12.21,20.03,5.42,10.55,11.49,20.68,18.96,29.93,7.71,9.54,16.46,17.94,26.99,24.35,7.58,4.61,15.77,7.53,24.46,9.24,10.61,2.08,21.28,3.16,32.08,2.56,14.93-.83,28.9-4.65,41.11-13.71.76-.56,1.5-1.16,2.23-1.76,3.09-2.52,3.53-7.21.79-10.09-11.11-11.65-20.16-24.82-28.57-38.48-7.17-11.65-13.97-23.53-21.44-34.99-4.92-7.54-10-14.97-15.95-21.73-5.87-6.67-12.85-12.05-20.6-16.41-8.97-5.05-18.5-8.57-28.7-9.99-18.49-2.57-35.25,1.57-50.08,13.15-10.2,7.97-18.07,17.87-24.58,28.94-7.72,13.12-13.21,27.19-17.55,41.74-4.35,14.56-7.43,29.4-9.65,44.43-1.5,10.13-2.71,20.3-3.5,30.51-1.33,17.05-1.86,34.12-1.45,51.22.24,10.16.75,20.3,1.68,30.42.44,4.75.94,9.5,1.72,14.22.31,1.86-.08,2.67-1.88,3.24-3.45,1.08-6.87.84-10.21-.56-.8-.34-1.22-.89-1.35-1.84-2.87-20.55-3.73-41.22-3.56-61.94.11-13.61.79-27.19,2.13-40.73,2.24-22.6,6.46-44.83,12.75-66.66,4.05-14.05,8.76-27.89,14.84-41.19,6.31-13.81,14.98-25.99,26.38-36.12,11.85-10.54,25.43-17.69,41.11-20.59,7.89-1.46,15.83-1.49,23.77-.31,16.48,2.45,30.63,9.83,43.31,20.38,9.64,8.02,17.21,17.78,24.12,28.12,7.65,11.45,14.39,23.47,21.46,35.27,6.27,10.45,12.86,20.67,20.63,30.1,3.87,4.7,8.38,8.77,12.56,13.16,3.56,3.74,5.82,8.09,5.48,13.46-.18,2.86-1.15,5.45-2.69,7.84-2.67,4.13-6.3,7.27-10.43,9.85-8.68,5.43-18.24,8.57-28.21,10.6-8.55,1.75-17.2,2.41-25.92,2.33-9.42-.08-18.68-1.41-27.81-3.72-.45-.11-.89-.31-1.38-.19Z"/>
        <path class="cls-1" d="m137.59,275.12c-.04,8.71-.51,18.33-1.73,27.91-.48,3.74-2.12,6.8-5.82,8.17-3.76,1.39-7.19.25-10.07-2.26-3.48-3.03-6.29-6.72-9.2-10.28-15.12-18.47-27.43-38.72-37.88-60.12-11.12-22.78-19.99-46.39-26.02-71.03-4.65-18.99-7.53-38.22-7.3-57.82.15-13.19,1.89-26.15,6.38-38.63.88-2.44,1.89-4.82,4.09-6.42,2.48-1.81,5.18-1.67,7.87-.7,4.27,1.52,7.7,4.33,10.91,7.42,7.62,7.33,13.81,15.8,19.42,24.7,17.43,27.61,29.86,57.34,37.47,89.09,3.34,13.92,6.12,27.96,8.18,42.13,2.26,15.56,3.63,31.19,3.7,47.86Z"/>
        <path class="cls-1" d="m109.43,328.2c-.64.59-1.28.67-1.93.67-3.5.04-6.96-.3-10.35-1.22-.79-.21-1.37-.62-1.92-1.2-20.07-21.53-36.82-45.4-50.64-71.37-14.85-27.9-26.26-57.13-34.3-87.68-3.49-13.26-6.39-26.66-8.23-40.27C-.01,111.78-.58,96.37.62,80.89c1.26-16.2,4.37-32.01,9.65-47.38,3.4-9.9,7.58-19.46,12.6-28.64C24.55,1.82,27.26.26,30.64.09c12.02-.62,23.4,1.96,34.24,7.12,10.88,5.18,20.32,12.36,28.96,20.68,16.42,15.82,29.05,34.4,39.59,54.47,12.16,23.16,20.44,47.75,26.36,73.17,3.52,15.09,6.13,30.34,7.96,45.72,2.07,17.32,3.16,34.7,3.52,52.14.35,16.58-.14,33.14-1.19,49.69-.45,7.13-1.18,14.24-1.75,21.36-.06.75-.32,1.07-1.09,1.08-2.04.03-4.05-.2-5.97-.86-1.99-.68-2.78-1.86-2.74-3.99.25-14.85.31-29.7-.04-44.55-.34-14.55-1.02-29.07-2.21-43.58-1.19-14.67-2.92-29.27-5.27-43.8-4.27-26.44-10.24-52.46-19.64-77.6-7.83-20.93-17.78-40.74-31.44-58.54-8.82-11.49-19.08-21.47-31.18-29.5-7.5-4.97-15.49-8.91-24.31-11-3.36-.79-6.77-1.17-10.22-1.35-1.09-.06-1.49.41-1.9,1.25-6.76,13.7-11.87,27.98-15.17,42.91-3.8,17.15-5.28,34.51-4.75,52.04.79,25.74,5.52,50.81,13.21,75.35,7.79,24.86,18.31,48.55,30.96,71.32,10.21,18.39,21.79,35.87,34.6,52.55,5.51,7.17,11.3,14.1,17.29,20.87.31.35.6.71.96,1.14Z"/>
      </g>
    </g>
  </g>
</svg>